<?xml version="1.0" encoding="utf-8"?>
<!-- Svg Vector Icons : http://www.onlinewebfonts.com/icon -->
<!DOCTYPE svg PUBLIC "-//W3C//DTD SVG 1.1//EN" "http://www.w3.org/Graphics/SVG/1.1/DTD/svg11.dtd">
<svg version="1.1" xmlns="http://www.w3.org/2000/svg" xmlns:xlink="http://www.w3.org/1999/xlink" x="0px" y="0px" viewBox="0 0 1000 1000" enable-background="new 0 0 1000 1000" xml:space="preserve">
<metadata> Svg Vector Icons : http://www.onlinewebfonts.com/icon </metadata>
<g><path d="M879.9,244.3H274.7c-57.6,0-98.8,45.5-98.8,101.4V733c0,57.4,41.1,104.1,98.8,104.1h75.6l-3,110.4c-0.3,11.2,5.9,21.7,16,27c4.4,2.3,9.3,3.5,14.1,3.5c6.1,0,12.4-1.8,17.6-5.6l191.9-135.3h292.9c57.6,0,110.2-46.7,110.2-104.1V345.8C990.1,289.8,937.5,244.3,879.9,244.3L879.9,244.3z M929.8,733.1c0,24.3-26,44.7-49.9,44.7H577.3c-6.3,0-12.5,1.9-17.6,5.6l-150.5,106l2.2-81.1c0.2-8-2.9-15.7-8.5-21.5c-5.7-5.8-13.4-8.9-21.6-8.9H274.7c-23.9,0-38.5-20.5-38.5-44.7V345.8c0-23.6,13.6-42.2,38.5-42.2h605.1c24.8,0,49.9,18.5,49.9,42.2V733.1L929.8,733.1z M108.8,81.2h605.1c24.8,0,49.9,18.5,49.9,42.2v17.2c0,16.3,13.5,29.7,30.2,29.7c16.6,0,30.2-13.3,30.2-29.7v-17.2c0-56-52.6-101.4-110.2-101.4H108.8C51.2,22,10,67.5,10,123.4v387.4c0,28.5,8.7,53.7,30.8,72.9c5.8,5,10,7.5,17.1,7.5c8.4,0,18.1-3.4,24-10c11-12.3,11.3-31-1.2-41.9c-9-7.9-10.6-17.2-10.6-28.5V123.4C70.4,99.8,84,81.2,108.8,81.2z"/></g>
</svg>